<svg xmlns="http://www.w3.org/2000/svg" viewBox="-4 -4 88 118" aria-hidden="true">
  <path
    d="M 18 5
       C 30 2, 48 2, 62 6
       L 65 12
       C 67 16, 69 21, 68 26
       L 73 32
       C 70 36, 67 39, 65 42
       C 68 47, 70 53, 67 58
       C 65 63, 60 67, 56 71
       L 48 81
       C 44 90, 41 100, 40 107
       C 38 100, 34 88, 28 78
       L 22 70
       C 25 62, 30 56, 32 52
       C 25 50, 16 48, 8 44
       C 4 38, 2 34, 3 32
       C 5 26, 8 22, 13 18
       C 15 12, 16 8, 18 5 Z"
    fill="none"
    stroke="#CBA356"
    stroke-width="2.5"
    stroke-linecap="round"
    stroke-linejoin="round"
  />
</svg>
