<svg xmlns="http://www.w3.org/2000/svg" viewBox="-4 -4 108 80" aria-hidden="true">
  <path
    d="M 6 62
       C 4 57, 3 50, 3 45
       C 4 38, 8 33, 13 29
       C 20 28, 28 28, 36 24
       C 40 22, 43 20, 46 19
       C 50 25, 54 32, 57 33
       C 60 40, 62 44, 64 43
       C 66 38, 68 33, 70 33
       C 73 24, 76 12, 79 0
       C 88 20, 95 37, 99 50
       C 98 56, 95 60, 92 63
       C 87 68, 82 71, 79 71
       C 76 72, 75 72, 73 72
       C 68 70, 62 67, 56 64
       C 50 66, 44 67, 37 66
       C 27 67, 17 65, 6 62 Z"
    fill="none"
    stroke="#CBA356"
    stroke-width="2.5"
    stroke-linecap="round"
    stroke-linejoin="round"
  />
</svg>
